<svg xmlns="http://www.w3.org/2000/svg" viewBox="0 0 1600 900" width="1600" height="900">
  <defs>
    <linearGradient id="bg" x1="0%" y1="0%" x2="100%" y2="100%">
      <stop offset="0%" stop-color="#042f2e"/>
      <stop offset="50%" stop-color="#0d9488"/>
      <stop offset="100%" stop-color="#065f46"/>
    </linearGradient>
    <radialGradient id="g1" cx="30%" cy="30%" r="50%">
      <stop offset="0%" stop-color="#2dd4bf" stop-opacity="0.35"/>
      <stop offset="100%" stop-color="transparent"/>
    </radialGradient>
    <radialGradient id="g2" cx="75%" cy="70%" r="35%">
      <stop offset="0%" stop-color="#5eead4" stop-opacity="0.2"/>
      <stop offset="100%" stop-color="transparent"/>
    </radialGradient>
    <filter id="b"><feGaussianBlur stdDeviation="40"/></filter>
  </defs>
  <rect width="1600" height="900" fill="url(#bg)"/>
  <rect width="1600" height="900" fill="url(#g1)"/>
  <rect width="1600" height="900" fill="url(#g2)"/>
  <circle cx="300" cy="300" r="140" fill="#14b8a6" opacity="0.12" filter="url(#b)"/>
  <circle cx="1300" cy="550" r="120" fill="#5eead4" opacity="0.1" filter="url(#b)"/>
  <rect x="1150" y="130" width="180" height="180" rx="36" fill="white" opacity="0.03" transform="rotate(12 1240 220)"/>
  <!-- Glass card — chat bubble -->
  <rect x="480" y="210" width="440" height="300" rx="32" fill="white" fill-opacity="0.08" stroke="white" stroke-opacity="0.12" stroke-width="1.5"/>
  <polygon points="560,510 520,560 620,510" fill="white" fill-opacity="0.08" stroke="white" stroke-opacity="0.12" stroke-width="1.5"/>
  <!-- Chat dots -->
  <circle cx="630" cy="340" r="12" fill="white" opacity="0.5"/>
  <circle cx="700" cy="340" r="12" fill="white" opacity="0.35"/>
  <circle cx="770" cy="340" r="12" fill="white" opacity="0.2"/>
  <!-- Heart / brain icon -->
  <g transform="translate(980,300)" opacity="0.7">
    <path d="M0,-35 C-10,-55 -40,-55 -40,-30 C-40,-10 0,20 0,35 C0,20 40,-10 40,-30 C40,-55 10,-55 0,-35 Z" fill="#2dd4bf" fill-opacity="0.3" stroke="white" stroke-width="3"/>
  </g>
  <!-- Small glass card -->
  <rect x="900" y="420" width="260" height="120" rx="20" fill="white" fill-opacity="0.06" stroke="white" stroke-opacity="0.1" stroke-width="1"/>
  <line x1="930" y1="465" x2="1090" y2="465" stroke="white" stroke-width="3" opacity="0.2"/>
  <line x1="930" y1="495" x2="1060" y2="495" stroke="white" stroke-width="3" opacity="0.15"/>
  <text x="800" y="800" text-anchor="middle" fill="white" font-family="system-ui,sans-serif" font-size="28" font-weight="500" opacity="0.6" letter-spacing="4">AMÂNCIO</text>
</svg>
