<svg xmlns="http://www.w3.org/2000/svg" viewBox="0 0 1600 900" width="1600" height="900">
  <defs>
    <linearGradient id="bg" x1="0%" y1="0%" x2="100%" y2="100%">
      <stop offset="0%" stop-color="#78350f"/>
      <stop offset="50%" stop-color="#b45309"/>
      <stop offset="100%" stop-color="#92400e"/>
    </linearGradient>
    <radialGradient id="g1" cx="30%" cy="40%" r="50%">
      <stop offset="0%" stop-color="#f59e0b" stop-opacity="0.3"/>
      <stop offset="100%" stop-color="transparent"/>
    </radialGradient>
    <radialGradient id="g2" cx="75%" cy="60%" r="35%">
      <stop offset="0%" stop-color="#fbbf24" stop-opacity="0.2"/>
      <stop offset="100%" stop-color="transparent"/>
    </radialGradient>
    <filter id="b"><feGaussianBlur stdDeviation="40"/></filter>
  </defs>
  <rect width="1600" height="900" fill="url(#bg)"/>
  <rect width="1600" height="900" fill="url(#g1)"/>
  <rect width="1600" height="900" fill="url(#g2)"/>
  <circle cx="350" cy="300" r="120" fill="#f59e0b" opacity="0.12" filter="url(#b)"/>
  <circle cx="1250" cy="550" r="150" fill="#fbbf24" opacity="0.1" filter="url(#b)"/>
  <rect x="200" y="500" width="170" height="170" rx="35" fill="white" opacity="0.03" transform="rotate(-15 285 585)"/>
  <!-- Glass search bar -->
  <rect x="420" y="320" width="760" height="80" rx="40" fill="white" fill-opacity="0.08" stroke="white" stroke-opacity="0.15" stroke-width="1.5"/>
  <!-- Search icon -->
  <circle cx="490" cy="360" r="18" fill="none" stroke="white" stroke-width="3.5" opacity="0.7"/>
  <line x1="503" y1="373" x2="518" y2="388" stroke="white" stroke-width="3.5" stroke-linecap="round" opacity="0.7"/>
  <!-- Query text lines -->
  <rect x="540" y="350" width="200" height="6" rx="3" fill="white" opacity="0.3"/>
  <rect x="540" y="366" width="140" height="6" rx="3" fill="white" opacity="0.2"/>
  <!-- Result cards below -->
  <rect x="420" y="440" width="365" height="100" rx="16" fill="white" fill-opacity="0.05" stroke="white" stroke-opacity="0.08" stroke-width="1"/>
  <circle cx="475" cy="490" r="20" fill="white" opacity="0.1"/>
  <rect x="510" y="475" width="120" height="6" rx="3" fill="white" opacity="0.2"/>
  <rect x="510" y="495" width="180" height="5" rx="2.5" fill="white" opacity="0.1"/>
  <rect x="815" y="440" width="365" height="100" rx="16" fill="white" fill-opacity="0.05" stroke="white" stroke-opacity="0.08" stroke-width="1"/>
  <circle cx="870" cy="490" r="20" fill="white" opacity="0.1"/>
  <rect x="905" y="475" width="120" height="6" rx="3" fill="white" opacity="0.2"/>
  <rect x="905" y="495" width="180" height="5" rx="2.5" fill="white" opacity="0.1"/>
  <text x="800" y="800" text-anchor="middle" fill="white" font-family="system-ui,sans-serif" font-size="28" font-weight="500" opacity="0.6" letter-spacing="4">LINKEDIN QUERY</text>
</svg>
