<svg xmlns="http://www.w3.org/2000/svg" viewBox="0 0 1600 900" width="1600" height="900">
  <defs>
    <linearGradient id="bg" x1="0%" y1="0%" x2="100%" y2="100%">
      <stop offset="0%" stop-color="#0a1628"/>
      <stop offset="50%" stop-color="#1e40af"/>
      <stop offset="100%" stop-color="#1e3a8a"/>
    </linearGradient>
    <radialGradient id="g1" cx="35%" cy="35%" r="45%">
      <stop offset="0%" stop-color="#3b82f6" stop-opacity="0.35"/>
      <stop offset="100%" stop-color="transparent"/>
    </radialGradient>
    <radialGradient id="g2" cx="70%" cy="65%" r="35%">
      <stop offset="0%" stop-color="#60a5fa" stop-opacity="0.2"/>
      <stop offset="100%" stop-color="transparent"/>
    </radialGradient>
    <filter id="b"><feGaussianBlur stdDeviation="40"/></filter>
  </defs>
  <rect width="1600" height="900" fill="url(#bg)"/>
  <rect width="1600" height="900" fill="url(#g1)"/>
  <rect width="1600" height="900" fill="url(#g2)"/>
  <circle cx="280" cy="250" r="140" fill="#2563eb" opacity="0.15" filter="url(#b)"/>
  <circle cx="1300" cy="600" r="160" fill="#3b82f6" opacity="0.1" filter="url(#b)"/>
  <rect x="150" y="450" width="180" height="180" rx="36" fill="white" opacity="0.03" transform="rotate(15 240 540)"/>
  <!-- Glass panel — people list -->
  <rect x="440" y="200" width="720" height="440" rx="28" fill="white" fill-opacity="0.06" stroke="white" stroke-opacity="0.1" stroke-width="1.5"/>
  <!-- Top bar with filter -->
  <rect x="440" y="200" width="720" height="55" rx="28" fill="white" fill-opacity="0.04"/>
  <rect x="480" y="218" width="100" height="20" rx="10" fill="white" fill-opacity="0.1" stroke="white" stroke-opacity="0.15" stroke-width="1"/>
  <rect x="495" y="225" width="70" height="6" rx="3" fill="white" opacity="0.25"/>
  <rect x="600" y="218" width="100" height="20" rx="10" fill="white" fill-opacity="0.1" stroke="white" stroke-opacity="0.15" stroke-width="1"/>
  <rect x="615" y="225" width="70" height="6" rx="3" fill="white" opacity="0.25"/>
  <!-- Person row 1 (highlighted) -->
  <rect x="470" y="280" width="660" height="75" rx="16" fill="white" fill-opacity="0.08" stroke="#60a5fa" stroke-opacity="0.25" stroke-width="1"/>
  <circle cx="520" cy="317" r="22" fill="white" opacity="0.15"/>
  <circle cx="520" cy="317" r="22" fill="none" stroke="white" stroke-opacity="0.2" stroke-width="1"/>
  <!-- Person silhouette -->
  <circle cx="520" cy="310" r="8" fill="white" opacity="0.3"/>
  <path d="M508,330 Q520,322 532,330" fill="white" opacity="0.2"/>
  <rect x="555" y="305" width="140" height="8" rx="4" fill="white" opacity="0.3"/>
  <rect x="555" y="320" width="200" height="6" rx="3" fill="white" opacity="0.15"/>
  <!-- Match badge -->
  <rect x="1040" y="303" width="65" height="24" rx="12" fill="#60a5fa" fill-opacity="0.2" stroke="#60a5fa" stroke-opacity="0.4" stroke-width="1"/>
  <rect x="1052" y="312" width="40" height="6" rx="3" fill="#93c5fd" opacity="0.6"/>
  <!-- Person row 2 -->
  <rect x="470" y="375" width="660" height="75" rx="16" fill="white" fill-opacity="0.04" stroke="white" stroke-opacity="0.06" stroke-width="1"/>
  <circle cx="520" cy="412" r="22" fill="white" opacity="0.1"/>
  <circle cx="520" cy="405" r="8" fill="white" opacity="0.2"/>
  <path d="M508,425 Q520,417 532,425" fill="white" opacity="0.15"/>
  <rect x="555" y="400" width="120" height="8" rx="4" fill="white" opacity="0.2"/>
  <rect x="555" y="415" width="180" height="6" rx="3" fill="white" opacity="0.1"/>
  <!-- Person row 3 -->
  <rect x="470" y="470" width="660" height="75" rx="16" fill="white" fill-opacity="0.04" stroke="white" stroke-opacity="0.06" stroke-width="1"/>
  <circle cx="520" cy="507" r="22" fill="white" opacity="0.1"/>
  <circle cx="520" cy="500" r="8" fill="white" opacity="0.2"/>
  <path d="M508,520 Q520,512 532,520" fill="white" opacity="0.15"/>
  <rect x="555" y="495" width="150" height="8" rx="4" fill="white" opacity="0.2"/>
  <rect x="555" y="510" width="170" height="6" rx="3" fill="white" opacity="0.1"/>
  <!-- Floating connection lines -->
  <line x1="1160" y1="317" x2="1250" y2="280" stroke="white" stroke-width="1" opacity="0.08" stroke-dasharray="4,4"/>
  <line x1="1160" y1="412" x2="1250" y2="380" stroke="white" stroke-width="1" opacity="0.06" stroke-dasharray="4,4"/>
  <circle cx="1260" cy="275" r="12" fill="white" opacity="0.05" stroke="white" stroke-opacity="0.1" stroke-width="1"/>
  <circle cx="1260" cy="375" r="12" fill="white" opacity="0.05" stroke="white" stroke-opacity="0.1" stroke-width="1"/>
  <text x="800" y="800" text-anchor="middle" fill="white" font-family="system-ui,sans-serif" font-size="28" font-weight="500" opacity="0.6" letter-spacing="4">LINKEDIN RH SEARCH</text>
</svg>