<svg xmlns="http://www.w3.org/2000/svg" viewBox="0 0 1600 900" width="1600" height="900">
  <defs>
    <linearGradient id="bg" x1="0%" y1="0%" x2="100%" y2="100%">
      <stop offset="0%" stop-color="#1a0a2e"/>
      <stop offset="50%" stop-color="#7c3aed"/>
      <stop offset="100%" stop-color="#4c1d95"/>
    </linearGradient>
    <radialGradient id="g1" cx="30%" cy="30%" r="50%">
      <stop offset="0%" stop-color="#a78bfa" stop-opacity="0.35"/>
      <stop offset="100%" stop-color="transparent"/>
    </radialGradient>
    <radialGradient id="g2" cx="75%" cy="65%" r="40%">
      <stop offset="0%" stop-color="#c084fc" stop-opacity="0.2"/>
      <stop offset="100%" stop-color="transparent"/>
    </radialGradient>
    <filter id="b"><feGaussianBlur stdDeviation="40"/></filter>
  </defs>
  <rect width="1600" height="900" fill="url(#bg)"/>
  <rect width="1600" height="900" fill="url(#g1)"/>
  <rect width="1600" height="900" fill="url(#g2)"/>
  <circle cx="300" cy="200" r="140" fill="#7c3aed" opacity="0.15" filter="url(#b)"/>
  <circle cx="1300" cy="650" r="170" fill="#a78bfa" opacity="0.1" filter="url(#b)"/>
  <rect x="180" y="450" width="160" height="160" rx="36" fill="white" opacity="0.03" transform="rotate(20 260 530)"/>
  <rect x="1250" y="100" width="200" height="200" rx="40" fill="white" opacity="0.04" transform="rotate(-15 1350 200)"/>
  <!-- Network nodes -->
  <circle cx="800" cy="380" r="28" fill="white" fill-opacity="0.15" stroke="white" stroke-opacity="0.4" stroke-width="2"/>
  <circle cx="620" cy="300" r="20" fill="white" fill-opacity="0.12" stroke="white" stroke-opacity="0.3" stroke-width="1.5"/>
  <circle cx="980" cy="310" r="22" fill="white" fill-opacity="0.12" stroke="white" stroke-opacity="0.3" stroke-width="1.5"/>
  <circle cx="660" cy="490" r="18" fill="white" fill-opacity="0.1" stroke="white" stroke-opacity="0.25" stroke-width="1.5"/>
  <circle cx="940" cy="480" r="19" fill="white" fill-opacity="0.1" stroke="white" stroke-opacity="0.25" stroke-width="1.5"/>
  <circle cx="500" cy="400" r="15" fill="white" fill-opacity="0.08" stroke="white" stroke-opacity="0.2" stroke-width="1"/>
  <circle cx="1100" cy="390" r="16" fill="white" fill-opacity="0.08" stroke="white" stroke-opacity="0.2" stroke-width="1"/>
  <circle cx="750" cy="220" r="14" fill="white" fill-opacity="0.08" stroke="white" stroke-opacity="0.2" stroke-width="1"/>
  <circle cx="870" cy="550" r="14" fill="white" fill-opacity="0.08" stroke="white" stroke-opacity="0.2" stroke-width="1"/>
  <!-- Connections -->
  <line x1="800" y1="380" x2="620" y2="300" stroke="white" stroke-width="1.5" opacity="0.2"/>
  <line x1="800" y1="380" x2="980" y2="310" stroke="white" stroke-width="1.5" opacity="0.2"/>
  <line x1="800" y1="380" x2="660" y2="490" stroke="white" stroke-width="1.5" opacity="0.15"/>
  <line x1="800" y1="380" x2="940" y2="480" stroke="white" stroke-width="1.5" opacity="0.15"/>
  <line x1="620" y1="300" x2="500" y2="400" stroke="white" stroke-width="1" opacity="0.12"/>
  <line x1="980" y1="310" x2="1100" y2="390" stroke="white" stroke-width="1" opacity="0.12"/>
  <line x1="620" y1="300" x2="750" y2="220" stroke="white" stroke-width="1" opacity="0.12"/>
  <line x1="940" y1="480" x2="870" y2="550" stroke="white" stroke-width="1" opacity="0.1"/>
  <line x1="660" y1="490" x2="500" y2="400" stroke="white" stroke-width="1" opacity="0.1"/>
  <line x1="980" y1="310" x2="750" y2="220" stroke="white" stroke-width="1" opacity="0.1"/>
  <!-- Central agent icon -->
  <circle cx="800" cy="370" r="12" fill="#a78bfa" opacity="0.8"/>
  <circle cx="800" cy="358" r="5" fill="white" opacity="0.9"/>
  <path d="M792,368 Q800,374 808,368" fill="none" stroke="white" stroke-width="1.5" opacity="0.9"/>
  <text x="800" y="800" text-anchor="middle" fill="white" font-family="system-ui,sans-serif" font-size="28" font-weight="500" opacity="0.6" letter-spacing="4">OASIS SOCIAL SIMULATION</text>
</svg>
